<?xml version="1.0" standalone="no"?><!DOCTYPE svg PUBLIC "-//W3C//DTD SVG 1.1//EN" "http://www.w3.org/Graphics/SVG/1.1/DTD/svg11.dtd"><svg class="icon" width="25px" height="25.00px" viewBox="0 0 1024 1024" version="1.1" xmlns="http://www.w3.org/2000/svg"><path fill="#A6D2DA" d="M838.651618 433.70275 306.45974 433.70275 306.45974 239.545748c2.068102-7.443529 12.317537-40.537252 38.885636-72.861448 39.642882-48.231491 95.566566-72.40096 166.197206-71.780837l0.130983-15.349593 0.130983 15.349593c70.611198-0.608867 126.555347 23.550369 166.19823 71.780837 26.591635 32.352849 36.835953 65.478294 38.885636 72.857355l0 63.532989 30.699186 0 0-67.273173-0.402159-1.721201c-0.412392-1.769296-10.500145-43.817971-44.559868-85.777619-20.085454-24.744567-44.39-44.402279-72.238254-58.425667-34.506908-17.376763-74.440409-26.004257-118.583792-25.670659L511.803525 64.205301c-0.046049 0-0.091074 0.001023-0.137123 0.001023-0.041956 0-0.082888-0.001023-0.124843-0.001023l0 0.001023c-44.180222-0.354064-84.076884 8.293897-118.582769 25.670659-27.848255 14.023388-52.1528 33.6811-72.238254 58.425667-34.059724 41.959647-44.147476 84.008322-44.559868 85.778642l-0.401136 1.720178 0 197.901279-91.062995 0c-14.954597 0-27.120684 12.166087-27.120684 27.120684l0 471.167013c0 14.953573 12.167111 27.120684 27.120684 27.120684l653.954059 0c14.953573 0 27.120684-12.167111 27.120684-27.120684L865.771279 460.824457C865.772302 445.86986 853.605192 433.70275 838.651618 433.70275zM835.073116 928.412968 188.276061 928.412968 188.276061 464.401935 835.073116 464.401935 835.073116 928.412968zM486.989373 748.361219l0 40.042995c0 4.593622 9.346879 17.33583 27.048029 17.33583 17.881253 0 26.323529-12.742209 26.323529-17.33583l0-40.042995c21.10262-10.002818 35.698037-31.495318 35.698037-56.400544 0-34.453696-27.930119-62.383816-62.383816-62.383816s-62.383816 27.930119-62.383816 62.383816C451.291336 716.864878 465.886753 738.358401 486.989373 748.361219z" /></svg>